<svg width="45" height="45" viewBox="0 0 45 45" fill="none" xmlns="http://www.w3.org/2000/svg">
<path d="M39.7266 7.03125H5.27344C5.08008 7.03125 4.92188 7.18945 4.92188 7.38281V10.1953C4.92188 10.3887 5.08008 10.5469 5.27344 10.5469H39.7266C39.9199 10.5469 40.0781 10.3887 40.0781 10.1953V7.38281C40.0781 7.18945 39.9199 7.03125 39.7266 7.03125ZM39.7266 34.4531H5.27344C5.08008 34.4531 4.92188 34.6113 4.92188 34.8047V37.6172C4.92188 37.8105 5.08008 37.9688 5.27344 37.9688H39.7266C39.9199 37.9688 40.0781 37.8105 40.0781 37.6172V34.8047C40.0781 34.6113 39.9199 34.4531 39.7266 34.4531ZM39.7266 20.7422H5.27344C5.08008 20.7422 4.92188 20.9004 4.92188 21.0938V23.9062C4.92188 24.0996 5.08008 24.2578 5.27344 24.2578H39.7266C39.9199 24.2578 40.0781 24.0996 40.0781 23.9062V21.0938C40.0781 20.9004 39.9199 20.7422 39.7266 20.7422Z" fill="white"/>
</svg>
