<svg width="278" height="204" viewBox="0 0 278 204" fill="none" xmlns="http://www.w3.org/2000/svg">
<path d="M236.589 20.7719L237.869 19.8641H236.3H41.7H40.1312L41.4107 20.7719L138.711 89.806L139 90.0113L139.289 89.806L236.589 20.7719ZM19.3571 183.277V183.777H19.8571H258.143H258.643V183.277V29.6297V28.6617L257.853 29.222L144.37 109.762L144.369 109.762C142.791 110.885 140.918 111.486 139 111.486C137.082 111.486 135.209 110.885 133.631 109.762L133.63 109.762L20.1465 29.222L19.3571 28.6617V29.6297V183.277ZM19.8571 0.5H258.143C263.273 0.5 268.195 2.58967 271.826 6.31356C275.458 10.0379 277.5 15.0918 277.5 20.3641V183.277C277.5 188.549 275.458 193.603 271.826 197.327C268.195 201.051 263.273 203.141 258.143 203.141H19.8571C14.7274 203.141 9.8052 201.051 6.174 197.327C2.54239 193.603 0.5 188.549 0.5 183.277V20.3641C0.5 15.0918 2.54239 10.0379 6.174 6.31356C9.8052 2.58967 14.7274 0.5 19.8571 0.5Z" fill="#C05A5A" stroke="white"/>
</svg>
