<svg width="896" height="872" viewBox="0 0 896 872" fill="none" xmlns="http://www.w3.org/2000/svg">
<path d="M195.944 738.423C215.658 761.034 251.073 779.477 318.2 771.981V847.8C318.2 849.136 318.248 850.541 318.297 851.942L318.31 852.32C318.362 853.858 318.41 855.392 318.395 856.893C318.366 859.924 318.081 862.655 317.179 864.808C316.311 866.879 314.875 868.422 312.382 869.19C309.802 869.985 305.953 869.991 300.231 868.561C126.347 807.747 1.5 642.218 1.5 447.5C1.5 201.229 201.128 1.7003 447.599 1.79996L447.6 0.299964V1.79996C693.873 1.79996 893.6 201.229 893.6 447.6C893.6 643.949 766.643 810.629 590.256 870.199C586.77 870.175 584.323 869.642 582.586 868.814C580.843 867.984 579.744 866.826 579 865.423C578.237 863.981 577.822 862.232 577.559 860.201C577.388 858.879 577.29 857.537 577.187 856.128C577.131 855.353 577.073 854.558 577 853.734V741.301C577.013 724.163 573.61 707.195 566.992 691.386C560.744 676.463 551.748 662.857 540.481 651.271C609.757 638.588 659.194 611.022 691.409 573.857C724.06 536.188 738.9 488.794 738.9 437.4C738.9 387.742 722.47 341.728 690.186 304.748C708.22 247.662 689.242 198.992 684.927 187.926C684.715 187.383 684.539 186.93 684.404 186.571L684.072 185.691L683.136 185.606C655.749 183.121 627.962 192.07 605.695 202.632C584.126 212.863 567.589 224.679 561.38 229.36C528.11 220.444 490.414 215.6 448.2 215.6C406.199 215.6 368.608 220.244 335.634 229.057C331.81 226.091 316.062 214.239 294.398 203.372C271.352 191.811 241.426 181.269 211.966 183.906L211.04 183.989L210.702 184.855C210.592 185.138 210.456 185.48 210.297 185.88C206.126 196.359 186.132 246.593 205.506 305.063C173.628 341.937 157.4 387.548 157.4 437.1C157.4 488.392 172.139 535.71 204.639 573.38C236.702 610.541 285.936 638.18 355.005 651.059C339.268 667.041 327.776 687.205 322.16 709.66C309.215 712.815 290.448 715.851 271.698 713.511C252.551 711.123 233.532 703.15 220.643 684.061L220.642 684.059C202.353 657.051 185.204 638.382 168.619 628.487C151.931 618.531 135.781 617.45 119.814 625.666L119.556 625.799L119.366 626.018C117.585 628.073 116.638 630.167 116.614 632.34C116.591 634.5 117.484 636.484 118.873 638.318C121.592 641.908 126.626 645.437 132.336 649.293C132.96 649.715 133.594 650.141 134.237 650.574C145.569 658.198 159.594 667.633 168.106 682.158L168.112 682.168L168.118 682.178C169.15 683.879 170.179 686.744 171.482 690.653C171.7 691.307 171.925 691.987 172.157 692.691C173.288 696.114 174.603 700.093 176.239 704.389C180.188 714.757 186.047 727.071 195.944 738.423Z" fill="#C05A5A" stroke="black" stroke-width="3"/>
</svg>
