<svg width="728" height="162" viewBox="0 0 728 162" fill="none" xmlns="http://www.w3.org/2000/svg">
<mask id="path-1-inside-1" fill="white">
<path d="M287.3 94.6532L327.471 138.517H295.75L260 98.2325V138.517H233.999V23.0866H260V90.9603L293.02 57.7154H326.17L287.3 94.6532ZM183.3 55.4075C177.607 55.4831 172.02 56.7828 167.016 59.1951C162.013 61.6074 157.742 65.0605 154.571 69.2587V57.7154H130.001V138.517H156V100.771C155.658 98.0317 155.956 95.2589 156.873 92.6256C157.791 89.9923 159.309 87.5549 161.333 85.4651C163.357 83.3753 165.844 81.6778 168.639 80.4783C171.434 79.2788 174.478 78.6029 177.579 78.4928C192.66 78.4928 195 91.6522 195 100.771V138.517H221.001V95.6923C221.001 70.2977 211.51 55.4075 183.82 55.4075H183.3ZM415.999 99.9634C416.099 101.655 416.099 103.351 415.999 105.043H347.749V105.851C348.857 110.664 351.861 114.97 356.221 117.995C360.581 121.02 366.012 122.566 371.54 122.357C375.926 122.526 380.304 121.908 384.415 120.54C388.525 119.171 392.282 117.081 395.46 114.393L412.75 125.936C407.27 130.902 400.679 134.792 393.402 137.357C386.125 139.922 378.323 141.104 370.499 140.827C364.021 141.19 357.529 140.315 351.464 138.26C345.399 136.205 339.901 133.018 335.341 128.915C330.782 124.812 327.267 119.887 325.034 114.475C322.802 109.062 321.904 103.287 322.4 97.5394C322.267 91.8657 323.451 86.2284 325.88 80.9789C328.308 75.7295 331.928 70.9804 336.513 67.0276C341.099 63.0748 346.553 60.0031 352.534 58.0039C358.516 56.0047 364.897 55.1208 371.28 55.4075C395.721 55.4075 415.999 70.7598 415.999 99.9634ZM391.82 90.0362C391.725 87.7497 391.106 85.5045 390.001 83.4374C388.897 81.3702 387.33 79.5244 385.396 78.0124C383.462 76.5004 381.202 75.3539 378.753 74.6427C376.304 73.9315 373.717 73.6706 371.151 73.8758C359.719 72.7786 349.366 79.9283 347.749 90.0362H391.82ZM26.0004 23.0866H0V138.517H77.9998V115.433H26.0004V23.0866ZM494.001 23.0866H520V138.517H495.43V130.437C492.31 133.85 488.333 136.568 483.819 138.372C479.304 140.176 474.377 141.016 469.431 140.827C463.388 140.689 457.441 139.455 451.955 137.201C446.469 134.948 441.56 131.722 437.529 127.721C433.499 123.721 430.433 119.031 428.519 113.94C426.605 108.849 425.884 103.464 426.4 98.1163C425.787 92.7611 426.435 87.351 428.304 82.2304C430.173 77.1097 433.223 72.3906 437.258 68.3734C441.293 64.3561 446.226 61.1287 451.742 58.8964C457.259 56.6642 463.238 55.476 469.3 55.4075C473.815 55.2318 478.324 55.8558 482.565 57.243C486.806 58.6303 490.693 60.753 494.001 63.4876V23.0866ZM495.95 98.1163C496.359 95.4509 496.119 92.7385 495.247 90.1623C494.375 87.586 492.891 85.2057 490.896 83.1819C488.9 81.1581 486.438 79.5378 483.677 78.4303C480.916 77.3228 477.92 76.7539 474.891 76.7619C462.453 77.5636 453.029 87.0604 453.7 98.1163C453.029 109.172 462.453 118.67 474.891 119.472C477.92 119.48 480.917 118.911 483.678 117.804C486.439 116.696 488.9 115.076 490.896 113.052C492.892 111.028 494.376 108.647 495.248 106.071C496.12 103.494 496.359 100.782 495.95 98.1163ZM104 20.7775C99.8192 20.8301 95.8165 22.2894 92.8002 24.8608C89.784 27.4322 87.9789 30.924 87.7496 34.6312C87.7496 42.5991 95.0253 49.0594 104 49.0594C112.975 49.0594 120.248 42.5978 120.248 34.6312C120.018 30.9245 118.213 27.4331 115.197 24.862C112.181 22.2909 108.179 20.8316 103.999 20.7787L104 20.7775ZM91 138.517H117V57.7154H91V138.517ZM728 11.5433V150.061C728 153.122 726.63 156.058 724.192 158.223C721.754 160.388 718.448 161.604 715 161.604H559C555.552 161.604 552.246 160.388 549.808 158.223C547.37 156.058 546 153.122 546 150.061V11.5433C546 8.48184 547.37 5.54575 549.808 3.38096C552.246 1.21617 555.552 0 559 0L715 0C718.448 0 721.754 1.21617 724.192 3.38096C726.63 5.54575 728 8.48184 728 11.5433ZM597.999 57.7154H572V138.517H597.999V57.7154ZM601.25 34.63C601.25 26.6609 593.974 20.2005 585.001 20.2005C576.026 20.2005 568.75 26.6609 568.75 34.63C568.75 42.5978 576.026 49.0582 585.001 49.0582C593.974 49.0582 601.25 42.5978 601.25 34.63ZM702 95.6923C702 70.2977 692.51 55.4075 664.82 55.4075C659.039 55.4079 653.347 56.6716 648.246 59.0872C643.144 61.5028 638.791 64.996 635.57 69.2587V57.7154H611V138.517H637V100.771C636.659 98.0317 636.956 95.2589 637.873 92.6256C638.791 89.9923 640.309 87.5549 642.333 85.4651C644.358 83.3753 646.845 81.6778 649.64 80.4783C652.435 79.2788 655.478 78.6029 658.58 78.4928C673.66 78.4928 676.001 91.6522 676.001 100.771V138.517H702V95.6923Z"/>
</mask>
<path d="M287.3 94.6532L327.471 138.517H295.75L260 98.2325V138.517H233.999V23.0866H260V90.9603L293.02 57.7154H326.17L287.3 94.6532ZM183.3 55.4075C177.607 55.4831 172.02 56.7828 167.016 59.1951C162.013 61.6074 157.742 65.0605 154.571 69.2587V57.7154H130.001V138.517H156V100.771C155.658 98.0317 155.956 95.2589 156.873 92.6256C157.791 89.9923 159.309 87.5549 161.333 85.4651C163.357 83.3753 165.844 81.6778 168.639 80.4783C171.434 79.2788 174.478 78.6029 177.579 78.4928C192.66 78.4928 195 91.6522 195 100.771V138.517H221.001V95.6923C221.001 70.2977 211.51 55.4075 183.82 55.4075H183.3ZM415.999 99.9634C416.099 101.655 416.099 103.351 415.999 105.043H347.749V105.851C348.857 110.664 351.861 114.97 356.221 117.995C360.581 121.02 366.012 122.566 371.54 122.357C375.926 122.526 380.304 121.908 384.415 120.54C388.525 119.171 392.282 117.081 395.46 114.393L412.75 125.936C407.27 130.902 400.679 134.792 393.402 137.357C386.125 139.922 378.323 141.104 370.499 140.827C364.021 141.19 357.529 140.315 351.464 138.26C345.399 136.205 339.901 133.018 335.341 128.915C330.782 124.812 327.267 119.887 325.034 114.475C322.802 109.062 321.904 103.287 322.4 97.5394C322.267 91.8657 323.451 86.2284 325.88 80.9789C328.308 75.7295 331.928 70.9804 336.513 67.0276C341.099 63.0748 346.553 60.0031 352.534 58.0039C358.516 56.0047 364.897 55.1208 371.28 55.4075C395.721 55.4075 415.999 70.7598 415.999 99.9634ZM391.82 90.0362C391.725 87.7497 391.106 85.5045 390.001 83.4374C388.897 81.3702 387.33 79.5244 385.396 78.0124C383.462 76.5004 381.202 75.3539 378.753 74.6427C376.304 73.9315 373.717 73.6706 371.151 73.8758C359.719 72.7786 349.366 79.9283 347.749 90.0362H391.82ZM26.0004 23.0866H0V138.517H77.9998V115.433H26.0004V23.0866ZM494.001 23.0866H520V138.517H495.43V130.437C492.31 133.85 488.333 136.568 483.819 138.372C479.304 140.176 474.377 141.016 469.431 140.827C463.388 140.689 457.441 139.455 451.955 137.201C446.469 134.948 441.56 131.722 437.529 127.721C433.499 123.721 430.433 119.031 428.519 113.94C426.605 108.849 425.884 103.464 426.4 98.1163C425.787 92.7611 426.435 87.351 428.304 82.2304C430.173 77.1097 433.223 72.3906 437.258 68.3734C441.293 64.3561 446.226 61.1287 451.742 58.8964C457.259 56.6642 463.238 55.476 469.3 55.4075C473.815 55.2318 478.324 55.8558 482.565 57.243C486.806 58.6303 490.693 60.753 494.001 63.4876V23.0866ZM495.95 98.1163C496.359 95.4509 496.119 92.7385 495.247 90.1623C494.375 87.586 492.891 85.2057 490.896 83.1819C488.9 81.1581 486.438 79.5378 483.677 78.4303C480.916 77.3228 477.92 76.7539 474.891 76.7619C462.453 77.5636 453.029 87.0604 453.7 98.1163C453.029 109.172 462.453 118.67 474.891 119.472C477.92 119.48 480.917 118.911 483.678 117.804C486.439 116.696 488.9 115.076 490.896 113.052C492.892 111.028 494.376 108.647 495.248 106.071C496.12 103.494 496.359 100.782 495.95 98.1163ZM104 20.7775C99.8192 20.8301 95.8165 22.2894 92.8002 24.8608C89.784 27.4322 87.9789 30.924 87.7496 34.6312C87.7496 42.5991 95.0253 49.0594 104 49.0594C112.975 49.0594 120.248 42.5978 120.248 34.6312C120.018 30.9245 118.213 27.4331 115.197 24.862C112.181 22.2909 108.179 20.8316 103.999 20.7787L104 20.7775ZM91 138.517H117V57.7154H91V138.517ZM728 11.5433V150.061C728 153.122 726.63 156.058 724.192 158.223C721.754 160.388 718.448 161.604 715 161.604H559C555.552 161.604 552.246 160.388 549.808 158.223C547.37 156.058 546 153.122 546 150.061V11.5433C546 8.48184 547.37 5.54575 549.808 3.38096C552.246 1.21617 555.552 0 559 0L715 0C718.448 0 721.754 1.21617 724.192 3.38096C726.63 5.54575 728 8.48184 728 11.5433ZM597.999 57.7154H572V138.517H597.999V57.7154ZM601.25 34.63C601.25 26.6609 593.974 20.2005 585.001 20.2005C576.026 20.2005 568.75 26.6609 568.75 34.63C568.75 42.5978 576.026 49.0582 585.001 49.0582C593.974 49.0582 601.25 42.5978 601.25 34.63ZM702 95.6923C702 70.2977 692.51 55.4075 664.82 55.4075C659.039 55.4079 653.347 56.6716 648.246 59.0872C643.144 61.5028 638.791 64.996 635.57 69.2587V57.7154H611V138.517H637V100.771C636.659 98.0317 636.956 95.2589 637.873 92.6256C638.791 89.9923 640.309 87.5549 642.333 85.4651C644.358 83.3753 646.845 81.6778 649.64 80.4783C652.435 79.2788 655.478 78.6029 658.58 78.4928C673.66 78.4928 676.001 91.6522 676.001 100.771V138.517H702V95.6923Z" fill="#C05A5A" stroke="white" stroke-width="2" mask="url(#path-1-inside-1)"/>
</svg>
