<svg width="61" height="58" viewBox="0 0 61 58" fill="none" xmlns="http://www.w3.org/2000/svg">
<path d="M59.5242 11.8859C58.5777 9.56001 57.213 7.45226 55.5065 5.6807C53.7986 3.90386 51.7851 2.49183 49.5752 1.52139C47.2838 0.511109 44.8261 -0.00600879 42.3448 5.26762e-05C38.8637 5.26762e-05 35.4674 1.01178 32.5159 2.92281C31.8098 3.37996 31.139 3.88208 30.5035 4.42916C29.868 3.88208 29.1972 3.37996 28.4911 2.92281C25.5396 1.01178 22.1433 5.26762e-05 18.6622 5.26762e-05C16.1556 5.26762e-05 13.7266 0.509663 11.4317 1.52139C9.2146 2.49564 7.21633 3.89707 5.50051 5.6807C3.79173 7.45026 2.42671 9.55851 1.48281 11.8859C0.501331 14.3066 0 16.8771 0 19.5226C0 22.0182 0.480148 24.6187 1.43338 27.2642C2.23127 29.475 3.37515 31.7682 4.83678 34.0839C7.15279 37.7486 10.3373 41.5707 14.2915 45.4452C20.8441 51.8678 27.3331 56.3044 27.6085 56.4843L29.2819 57.6234C30.0233 58.1255 30.9766 58.1255 31.718 57.6234L33.3914 56.4843C33.6668 56.2969 40.1488 51.8678 46.7085 45.4452C50.6626 41.5707 53.8471 37.7486 56.1631 34.0839C57.6248 31.7682 58.7757 29.475 59.5665 27.2642C60.5198 24.6187 60.9999 22.0182 60.9999 19.5226C61.007 16.8771 60.5057 14.3066 59.5242 11.8859V11.8859Z" fill="#062041"/>
</svg>
