<svg width="400" height="346" viewBox="0 0 400 346" fill="none" xmlns="http://www.w3.org/2000/svg">
<path d="M29.0838 46.256C27.7398 46.256 26.4918 45.9787 25.3398 45.424C24.1878 44.848 23.2597 44.048 22.5557 43.024L24.4118 40.848C25.6491 42.6187 27.2064 43.504 29.0838 43.504C30.3424 43.504 31.2918 43.12 31.9318 42.352C32.5931 41.584 32.9238 40.4533 32.9238 38.96V26.384H24.8278V23.6H36.0918V38.8C36.0918 41.2747 35.4944 43.1413 34.2998 44.4C33.1264 45.6373 31.3878 46.256 29.0838 46.256ZM48.338 28.88C50.6847 28.88 52.4767 29.456 53.714 30.608C54.9727 31.76 55.602 33.4773 55.602 35.76V46H52.69V43.76C52.178 44.5493 51.442 45.1573 50.482 45.584C49.5433 45.9893 48.4233 46.192 47.122 46.192C45.2233 46.192 43.698 45.7333 42.546 44.816C41.4153 43.8987 40.85 42.6933 40.85 41.2C40.85 39.7067 41.394 38.512 42.482 37.616C43.57 36.6987 45.298 36.24 47.666 36.24H52.53V35.632C52.53 34.3093 52.146 33.296 51.378 32.592C50.61 31.888 49.4793 31.536 47.986 31.536C46.9833 31.536 46.002 31.7067 45.042 32.048C44.082 32.368 43.2713 32.8053 42.61 33.36L41.33 31.056C42.2047 30.352 43.25 29.8187 44.466 29.456C45.682 29.072 46.9727 28.88 48.338 28.88ZM47.634 43.824C48.8073 43.824 49.8207 43.568 50.674 43.056C51.5273 42.5227 52.146 41.776 52.53 40.816V38.448H47.794C45.1913 38.448 43.89 39.3227 43.89 41.072C43.89 41.9253 44.2207 42.5973 44.882 43.088C45.5433 43.5787 46.4607 43.824 47.634 43.824ZM75.9825 29.04L68.5585 46H65.4225L57.9985 29.04H61.1985L67.0225 42.64L72.9745 29.04H75.9825ZM84.4943 28.88C86.8409 28.88 88.6329 29.456 89.8703 30.608C91.1289 31.76 91.7583 33.4773 91.7583 35.76V46H88.8463V43.76C88.3343 44.5493 87.5983 45.1573 86.6383 45.584C85.6996 45.9893 84.5796 46.192 83.2783 46.192C81.3796 46.192 79.8543 45.7333 78.7023 44.816C77.5716 43.8987 77.0063 42.6933 77.0063 41.2C77.0063 39.7067 77.5503 38.512 78.6383 37.616C79.7263 36.6987 81.4543 36.24 83.8223 36.24H88.6863V35.632C88.6863 34.3093 88.3023 33.296 87.5343 32.592C86.7663 31.888 85.6356 31.536 84.1423 31.536C83.1396 31.536 82.1583 31.7067 81.1983 32.048C80.2383 32.368 79.4276 32.8053 78.7663 33.36L77.4863 31.056C78.3609 30.352 79.4063 29.8187 80.6223 29.456C81.8383 29.072 83.1289 28.88 84.4943 28.88ZM83.7903 43.824C84.9636 43.824 85.9769 43.568 86.8303 43.056C87.6836 42.5227 88.3023 41.776 88.6863 40.816V38.448H83.9503C81.3476 38.448 80.0463 39.3227 80.0463 41.072C80.0463 41.9253 80.3769 42.5973 81.0383 43.088C81.6996 43.5787 82.6169 43.824 83.7903 43.824ZM102.307 46.192C100.921 46.192 99.5873 46.0107 98.3073 45.648C97.0273 45.264 96.0246 44.784 95.2993 44.208L96.5793 41.776C97.3259 42.3093 98.2326 42.736 99.2993 43.056C100.366 43.376 101.443 43.536 102.531 43.536C105.219 43.536 106.563 42.768 106.563 41.232C106.563 40.72 106.382 40.3147 106.019 40.016C105.657 39.7173 105.198 39.504 104.643 39.376C104.11 39.2267 103.342 39.0667 102.339 38.896C100.974 38.6827 99.8539 38.4373 98.9793 38.16C98.1259 37.8827 97.3899 37.4133 96.7713 36.752C96.1526 36.0907 95.8433 35.1627 95.8433 33.968C95.8433 32.432 96.4833 31.2053 97.7633 30.288C99.0433 29.3493 100.761 28.88 102.915 28.88C104.046 28.88 105.177 29.0187 106.307 29.296C107.438 29.5733 108.366 29.9467 109.091 30.416L107.779 32.848C106.393 31.952 104.761 31.504 102.883 31.504C101.582 31.504 100.59 31.7173 99.9073 32.144C99.2246 32.5707 98.8833 33.136 98.8833 33.84C98.8833 34.3947 99.0753 34.832 99.4593 35.152C99.8433 35.472 100.313 35.7067 100.867 35.856C101.443 36.0053 102.243 36.176 103.267 36.368C104.633 36.6027 105.731 36.8587 106.563 37.136C107.417 37.392 108.142 37.84 108.739 38.48C109.337 39.12 109.635 40.016 109.635 41.168C109.635 42.704 108.974 43.9307 107.651 44.848C106.35 45.744 104.569 46.192 102.307 46.192ZM120.867 46.192C119.139 46.192 117.592 45.8187 116.227 45.072C114.883 44.3253 113.827 43.3013 113.059 42C112.291 40.6773 111.907 39.184 111.907 37.52C111.907 35.856 112.291 34.3733 113.059 33.072C113.827 31.7493 114.883 30.7253 116.227 30C117.592 29.2533 119.139 28.88 120.867 28.88C122.403 28.88 123.768 29.1893 124.963 29.808C126.179 30.4267 127.117 31.3227 127.779 32.496L125.443 34C124.909 33.1893 124.248 32.5813 123.459 32.176C122.669 31.7707 121.795 31.568 120.835 31.568C119.725 31.568 118.723 31.8133 117.827 32.304C116.952 32.7947 116.259 33.4987 115.747 34.416C115.256 35.312 115.011 36.3467 115.011 37.52C115.011 38.7147 115.256 39.7707 115.747 40.688C116.259 41.584 116.952 42.2773 117.827 42.768C118.723 43.2587 119.725 43.504 120.835 43.504C121.795 43.504 122.669 43.3013 123.459 42.896C124.248 42.4907 124.909 41.8827 125.443 41.072L127.779 42.544C127.117 43.7173 126.179 44.624 124.963 45.264C123.768 45.8827 122.403 46.192 120.867 46.192ZM134.7 31.888C135.233 30.9067 136.022 30.16 137.068 29.648C138.113 29.136 139.382 28.88 140.876 28.88V31.856C140.705 31.8347 140.47 31.824 140.172 31.824C138.508 31.824 137.196 32.3253 136.236 33.328C135.297 34.3093 134.828 35.7173 134.828 37.552V46H131.756V29.04H134.7V31.888ZM144.662 29.04H147.734V46H144.662V29.04ZM146.198 25.776C145.601 25.776 145.099 25.584 144.694 25.2C144.31 24.816 144.118 24.3467 144.118 23.792C144.118 23.2373 144.31 22.768 144.694 22.384C145.099 21.9787 145.601 21.776 146.198 21.776C146.795 21.776 147.286 21.968 147.67 22.352C148.075 22.7147 148.278 23.1733 148.278 23.728C148.278 24.304 148.075 24.7947 147.67 25.2C147.286 25.584 146.795 25.776 146.198 25.776ZM162.592 28.88C164.234 28.88 165.706 29.2427 167.008 29.968C168.309 30.6933 169.322 31.7067 170.048 33.008C170.794 34.3093 171.168 35.8133 171.168 37.52C171.168 39.2267 170.794 40.7413 170.048 42.064C169.322 43.3653 168.309 44.3787 167.008 45.104C165.706 45.8293 164.234 46.192 162.592 46.192C161.376 46.192 160.256 45.9573 159.232 45.488C158.229 45.0187 157.376 44.336 156.672 43.44V52.208H153.6V29.04H156.544V31.728C157.226 30.7893 158.09 30.0853 159.135 29.616C160.181 29.1253 161.333 28.88 162.592 28.88ZM162.336 43.504C163.424 43.504 164.394 43.2587 165.248 42.768C166.122 42.256 166.805 41.552 167.296 40.656C167.808 39.7387 168.064 38.6933 168.064 37.52C168.064 36.3467 167.808 35.312 167.296 34.416C166.805 33.4987 166.122 32.7947 165.248 32.304C164.394 31.8133 163.424 31.568 162.336 31.568C161.269 31.568 160.298 31.824 159.424 32.336C158.57 32.8267 157.888 33.52 157.376 34.416C156.885 35.312 156.64 36.3467 156.64 37.52C156.64 38.6933 156.885 39.7387 157.376 40.656C157.866 41.552 158.549 42.256 159.424 42.768C160.298 43.2587 161.269 43.504 162.336 43.504ZM184.948 45.008C184.5 45.392 183.945 45.6907 183.284 45.904C182.623 46.096 181.94 46.192 181.236 46.192C179.529 46.192 178.207 45.7333 177.268 44.816C176.329 43.8987 175.86 42.5867 175.86 40.88V31.568H172.98V29.04H175.86V25.328H178.932V29.04H183.796V31.568H178.932V40.752C178.932 41.6693 179.156 42.3733 179.604 42.864C180.073 43.3547 180.735 43.6 181.588 43.6C182.527 43.6 183.327 43.3333 183.988 42.8L184.948 45.008ZM189.398 33.264C188.801 33.264 188.289 33.0613 187.862 32.656C187.435 32.2293 187.222 31.696 187.222 31.056C187.222 30.4373 187.435 29.9253 187.862 29.52C188.289 29.0933 188.801 28.88 189.398 28.88C189.995 28.88 190.497 29.0827 190.902 29.488C191.307 29.8933 191.51 30.416 191.51 31.056C191.51 31.696 191.297 32.2293 190.87 32.656C190.465 33.0613 189.974 33.264 189.398 33.264ZM189.398 46.192C188.801 46.192 188.289 45.9893 187.862 45.584C187.435 45.1573 187.222 44.624 187.222 43.984C187.222 43.3653 187.435 42.8533 187.862 42.448C188.289 42.0213 188.801 41.808 189.398 41.808C189.995 41.808 190.497 42.0107 190.902 42.416C191.307 42.8213 191.51 43.344 191.51 43.984C191.51 44.624 191.297 45.1573 190.87 45.584C190.465 45.9893 189.974 46.192 189.398 46.192Z" fill="white"/>
<path d="M112.879 92.6L103.055 115H99.8865L90.0305 92.6H93.4865L101.551 111L109.679 92.6H112.879ZM130.533 98.04V115H127.621V112.44C127.002 113.315 126.181 113.997 125.157 114.488C124.154 114.957 123.055 115.192 121.861 115.192C119.599 115.192 117.818 114.573 116.516 113.336C115.215 112.077 114.565 110.232 114.565 107.8V98.04H117.637V107.448C117.637 109.091 118.031 110.339 118.821 111.192C119.61 112.024 120.741 112.44 122.213 112.44C123.834 112.44 125.114 111.949 126.053 110.968C126.991 109.987 127.461 108.6 127.461 106.808V98.04H130.533ZM151.709 106.616C151.709 106.851 151.687 107.16 151.645 107.544H137.885C138.077 109.037 138.727 110.243 139.837 111.16C140.967 112.056 142.365 112.504 144.029 112.504C146.055 112.504 147.687 111.821 148.925 110.456L150.621 112.44C149.853 113.336 148.893 114.019 147.741 114.488C146.61 114.957 145.341 115.192 143.933 115.192C142.141 115.192 140.551 114.829 139.165 114.104C137.778 113.357 136.701 112.323 135.933 111C135.186 109.677 134.813 108.184 134.813 106.52C134.813 104.877 135.175 103.395 135.901 102.072C136.647 100.749 137.661 99.7253 138.941 99C140.242 98.2533 141.703 97.88 143.325 97.88C144.946 97.88 146.386 98.2533 147.645 99C148.925 99.7253 149.917 100.749 150.621 102.072C151.346 103.395 151.709 104.909 151.709 106.616ZM143.325 100.472C141.853 100.472 140.615 100.92 139.613 101.816C138.631 102.712 138.055 103.885 137.885 105.336H148.765C148.594 103.907 148.007 102.744 147.005 101.848C146.023 100.931 144.797 100.472 143.325 100.472ZM156.711 115.192C156.113 115.192 155.601 114.989 155.174 114.584C154.748 114.157 154.535 113.624 154.535 112.984C154.535 112.365 154.748 111.853 155.174 111.448C155.601 111.021 156.113 110.808 156.711 110.808C157.308 110.808 157.809 111.011 158.215 111.416C158.62 111.821 158.823 112.344 158.823 112.984C158.823 113.624 158.609 114.157 158.183 114.584C157.777 114.989 157.287 115.192 156.711 115.192ZM161.361 121.4C160.614 121.4 159.921 121.315 159.281 121.144C158.641 120.973 158.108 120.717 157.681 120.376L158.673 118.008C159.313 118.541 160.145 118.808 161.169 118.808C161.98 118.808 162.598 118.552 163.025 118.04C163.473 117.549 163.697 116.813 163.697 115.832V98.04H166.769V115.768C166.769 117.517 166.3 118.893 165.361 119.896C164.422 120.899 163.089 121.4 161.361 121.4ZM165.233 94.776C164.636 94.776 164.134 94.584 163.729 94.2C163.345 93.816 163.153 93.3467 163.153 92.792C163.153 92.2373 163.345 91.768 163.729 91.384C164.134 90.9787 164.636 90.776 165.233 90.776C165.83 90.776 166.321 90.968 166.705 91.352C167.11 91.7147 167.313 92.1733 167.313 92.728C167.313 93.304 167.11 93.7947 166.705 94.2C166.321 94.584 165.83 94.776 165.233 94.776ZM177.495 115.192C176.108 115.192 174.775 115.011 173.495 114.648C172.215 114.264 171.212 113.784 170.487 113.208L171.767 110.776C172.513 111.309 173.42 111.736 174.487 112.056C175.553 112.376 176.631 112.536 177.719 112.536C180.407 112.536 181.751 111.768 181.751 110.232C181.751 109.72 181.569 109.315 181.207 109.016C180.844 108.717 180.385 108.504 179.831 108.376C179.297 108.227 178.529 108.067 177.527 107.896C176.161 107.683 175.041 107.437 174.167 107.16C173.313 106.883 172.577 106.413 171.959 105.752C171.34 105.091 171.031 104.163 171.031 102.968C171.031 101.432 171.671 100.205 172.951 99.288C174.231 98.3493 175.948 97.88 178.103 97.88C179.233 97.88 180.364 98.0187 181.495 98.296C182.625 98.5733 183.553 98.9467 184.279 99.416L182.967 101.848C181.58 100.952 179.948 100.504 178.071 100.504C176.769 100.504 175.777 100.717 175.095 101.144C174.412 101.571 174.071 102.136 174.071 102.84C174.071 103.395 174.263 103.832 174.647 104.152C175.031 104.472 175.5 104.707 176.055 104.856C176.631 105.005 177.431 105.176 178.455 105.368C179.82 105.603 180.919 105.859 181.751 106.136C182.604 106.392 183.329 106.84 183.927 107.48C184.524 108.12 184.823 109.016 184.823 110.168C184.823 111.704 184.161 112.931 182.839 113.848C181.537 114.744 179.756 115.192 177.495 115.192ZM189.398 102.264C188.801 102.264 188.289 102.061 187.862 101.656C187.435 101.229 187.222 100.696 187.222 100.056C187.222 99.4373 187.435 98.9253 187.862 98.52C188.289 98.0933 188.801 97.88 189.398 97.88C189.995 97.88 190.497 98.0827 190.902 98.488C191.307 98.8933 191.51 99.416 191.51 100.056C191.51 100.696 191.297 101.229 190.87 101.656C190.465 102.061 189.974 102.264 189.398 102.264ZM189.398 115.192C188.801 115.192 188.289 114.989 187.862 114.584C187.435 114.157 187.222 113.624 187.222 112.984C187.222 112.365 187.435 111.853 187.862 111.448C188.289 111.021 188.801 110.808 189.398 110.808C189.995 110.808 190.497 111.011 190.902 111.416C191.307 111.821 191.51 112.344 191.51 112.984C191.51 113.624 191.297 114.157 190.87 114.584C190.465 114.989 189.974 115.192 189.398 115.192Z" fill="white"/>
<path d="M79.4085 161.6C82.3098 161.6 84.5925 162.293 86.2565 163.68C87.9205 165.067 88.7525 166.976 88.7525 169.408C88.7525 171.84 87.9205 173.749 86.2565 175.136C84.5925 176.523 82.3098 177.216 79.4085 177.216H73.8725V184H70.6725V161.6H79.4085ZM79.3125 174.432C81.3392 174.432 82.8858 174.005 83.9525 173.152C85.0192 172.277 85.5525 171.029 85.5525 169.408C85.5525 167.787 85.0192 166.549 83.9525 165.696C82.8858 164.821 81.3392 164.384 79.3125 164.384H73.8725V174.432H79.3125ZM108.108 167.04L99.8835 185.696C99.1582 187.424 98.3048 188.64 97.3235 189.344C96.3635 190.048 95.2008 190.4 93.8355 190.4C93.0035 190.4 92.1928 190.261 91.4035 189.984C90.6355 189.728 89.9955 189.344 89.4835 188.832L90.7955 186.528C91.6702 187.36 92.6835 187.776 93.8355 187.776C94.5822 187.776 95.2008 187.573 95.6915 187.168C96.2035 186.784 96.6622 186.112 97.0675 185.152L97.6115 183.968L90.1235 167.04H93.3235L99.2435 180.608L105.1 167.04H108.108ZM120.979 183.008C120.531 183.392 119.977 183.691 119.315 183.904C118.654 184.096 117.971 184.192 117.267 184.192C115.561 184.192 114.238 183.733 113.299 182.816C112.361 181.899 111.891 180.587 111.891 178.88V169.568H109.011V167.04H111.891V163.328H114.963V167.04H119.827V169.568H114.963V178.752C114.963 179.669 115.187 180.373 115.635 180.864C116.105 181.355 116.766 181.6 117.619 181.6C118.558 181.6 119.358 181.333 120.019 180.8L120.979 183.008ZM133.749 166.88C135.904 166.88 137.611 167.509 138.869 168.768C140.149 170.005 140.789 171.829 140.789 174.24V184H137.717V174.592C137.717 172.949 137.323 171.712 136.533 170.88C135.744 170.048 134.613 169.632 133.141 169.632C131.477 169.632 130.165 170.123 129.205 171.104C128.245 172.064 127.765 173.451 127.765 175.264V184H124.693V160.256H127.765V169.44C128.405 168.629 129.237 168 130.261 167.552C131.307 167.104 132.469 166.88 133.749 166.88ZM153.832 184.192C152.147 184.192 150.632 183.819 149.288 183.072C147.944 182.325 146.888 181.301 146.12 180C145.374 178.677 145 177.184 145 175.52C145 173.856 145.374 172.373 146.12 171.072C146.888 169.749 147.944 168.725 149.288 168C150.632 167.253 152.147 166.88 153.832 166.88C155.518 166.88 157.022 167.253 158.344 168C159.688 168.725 160.734 169.749 161.48 171.072C162.248 172.373 162.632 173.856 162.632 175.52C162.632 177.184 162.248 178.677 161.48 180C160.734 181.301 159.688 182.325 158.344 183.072C157.022 183.819 155.518 184.192 153.832 184.192ZM153.832 181.504C154.92 181.504 155.891 181.259 156.744 180.768C157.619 180.256 158.302 179.552 158.792 178.656C159.283 177.739 159.528 176.693 159.528 175.52C159.528 174.347 159.283 173.312 158.792 172.416C158.302 171.499 157.619 170.795 156.744 170.304C155.891 169.813 154.92 169.568 153.832 169.568C152.744 169.568 151.763 169.813 150.888 170.304C150.035 170.795 149.352 171.499 148.84 172.416C148.35 173.312 148.104 174.347 148.104 175.52C148.104 176.693 148.35 177.739 148.84 178.656C149.352 179.552 150.035 180.256 150.888 180.768C151.763 181.259 152.744 181.504 153.832 181.504ZM175.937 166.88C178.091 166.88 179.798 167.509 181.057 168.768C182.337 170.005 182.977 171.829 182.977 174.24V184H179.905V174.592C179.905 172.949 179.51 171.712 178.721 170.88C177.931 170.048 176.801 169.632 175.329 169.632C173.665 169.632 172.353 170.123 171.393 171.104C170.433 172.064 169.953 173.451 169.953 175.264V184H166.881V167.04H169.825V169.6C170.443 168.725 171.275 168.053 172.321 167.584C173.387 167.115 174.593 166.88 175.937 166.88ZM189.398 171.264C188.801 171.264 188.289 171.061 187.862 170.656C187.435 170.229 187.222 169.696 187.222 169.056C187.222 168.437 187.435 167.925 187.862 167.52C188.289 167.093 188.801 166.88 189.398 166.88C189.995 166.88 190.497 167.083 190.902 167.488C191.307 167.893 191.51 168.416 191.51 169.056C191.51 169.696 191.297 170.229 190.87 170.656C190.465 171.061 189.974 171.264 189.398 171.264ZM189.398 184.192C188.801 184.192 188.289 183.989 187.862 183.584C187.435 183.157 187.222 182.624 187.222 181.984C187.222 181.365 187.435 180.853 187.862 180.448C188.289 180.021 188.801 179.808 189.398 179.808C189.995 179.808 190.497 180.011 190.902 180.416C191.307 180.821 191.51 181.344 191.51 181.984C191.51 182.624 191.297 183.157 190.87 183.584C190.465 183.989 189.974 184.192 189.398 184.192Z" fill="white"/>
<path d="M136.501 253.256C134.261 253.256 132.234 252.765 130.421 251.784C128.629 250.781 127.221 249.416 126.197 247.688C125.173 245.939 124.661 243.976 124.661 241.8C124.661 239.624 125.173 237.672 126.197 235.944C127.221 234.195 128.64 232.829 130.453 231.848C132.266 230.845 134.293 230.344 136.533 230.344C138.282 230.344 139.882 230.643 141.333 231.24C142.784 231.816 144.021 232.68 145.045 233.832L142.965 235.848C141.28 234.077 139.178 233.192 136.661 233.192C134.997 233.192 133.493 233.565 132.149 234.312C130.805 235.059 129.749 236.093 128.981 237.416C128.234 238.717 127.861 240.179 127.861 241.8C127.861 243.421 128.234 244.893 128.981 246.216C129.749 247.517 130.805 248.541 132.149 249.288C133.493 250.035 134.997 250.408 136.661 250.408C139.157 250.408 141.258 249.512 142.965 247.72L145.045 249.736C144.021 250.888 142.773 251.763 141.301 252.36C139.85 252.957 138.25 253.256 136.501 253.256ZM156.044 253.256C154.359 253.256 152.727 253 151.148 252.488C149.591 251.955 148.364 251.272 147.468 250.44L148.652 247.944C149.506 248.712 150.594 249.341 151.916 249.832C153.26 250.301 154.636 250.536 156.044 250.536C157.9 250.536 159.287 250.227 160.204 249.608C161.122 248.968 161.58 248.125 161.58 247.08C161.58 246.312 161.324 245.693 160.812 245.224C160.322 244.733 159.703 244.36 158.956 244.104C158.231 243.848 157.196 243.56 155.852 243.24C154.167 242.835 152.802 242.429 151.756 242.024C150.732 241.619 149.847 241 149.1 240.168C148.375 239.315 148.012 238.173 148.012 236.744C148.012 235.549 148.322 234.472 148.94 233.512C149.58 232.552 150.54 231.784 151.82 231.208C153.1 230.632 154.69 230.344 156.588 230.344C157.911 230.344 159.212 230.515 160.492 230.856C161.772 231.197 162.871 231.688 163.788 232.328L162.732 234.888C161.794 234.291 160.791 233.843 159.724 233.544C158.658 233.224 157.612 233.064 156.588 233.064C154.775 233.064 153.41 233.395 152.492 234.056C151.596 234.717 151.148 235.571 151.148 236.616C151.148 237.384 151.404 238.013 151.916 238.504C152.428 238.973 153.058 239.347 153.804 239.624C154.572 239.88 155.607 240.157 156.908 240.456C158.594 240.861 159.948 241.267 160.972 241.672C161.996 242.077 162.871 242.696 163.596 243.528C164.343 244.36 164.716 245.48 164.716 246.888C164.716 248.061 164.396 249.139 163.756 250.12C163.116 251.08 162.146 251.848 160.844 252.424C159.543 252.979 157.943 253.256 156.044 253.256ZM175.919 253.256C174.234 253.256 172.602 253 171.023 252.488C169.466 251.955 168.239 251.272 167.343 250.44L168.527 247.944C169.381 248.712 170.469 249.341 171.791 249.832C173.135 250.301 174.511 250.536 175.919 250.536C177.775 250.536 179.162 250.227 180.079 249.608C180.997 248.968 181.455 248.125 181.455 247.08C181.455 246.312 181.199 245.693 180.687 245.224C180.197 244.733 179.578 244.36 178.831 244.104C178.106 243.848 177.071 243.56 175.727 243.24C174.042 242.835 172.677 242.429 171.631 242.024C170.607 241.619 169.722 241 168.975 240.168C168.25 239.315 167.887 238.173 167.887 236.744C167.887 235.549 168.197 234.472 168.815 233.512C169.455 232.552 170.415 231.784 171.695 231.208C172.975 230.632 174.565 230.344 176.463 230.344C177.786 230.344 179.087 230.515 180.367 230.856C181.647 231.197 182.746 231.688 183.663 232.328L182.607 234.888C181.669 234.291 180.666 233.843 179.599 233.544C178.533 233.224 177.487 233.064 176.463 233.064C174.65 233.064 173.285 233.395 172.367 234.056C171.471 234.717 171.023 235.571 171.023 236.616C171.023 237.384 171.279 238.013 171.791 238.504C172.303 238.973 172.933 239.347 173.679 239.624C174.447 239.88 175.482 240.157 176.783 240.456C178.469 240.861 179.823 241.267 180.847 241.672C181.871 242.077 182.746 242.696 183.471 243.528C184.218 244.36 184.591 245.48 184.591 246.888C184.591 248.061 184.271 249.139 183.631 250.12C182.991 251.08 182.021 251.848 180.719 252.424C179.418 252.979 177.818 253.256 175.919 253.256ZM189.398 240.264C188.801 240.264 188.289 240.061 187.862 239.656C187.435 239.229 187.222 238.696 187.222 238.056C187.222 237.437 187.435 236.925 187.862 236.52C188.289 236.093 188.801 235.88 189.398 235.88C189.995 235.88 190.497 236.083 190.902 236.488C191.307 236.893 191.51 237.416 191.51 238.056C191.51 238.696 191.297 239.229 190.87 239.656C190.465 240.061 189.974 240.264 189.398 240.264ZM189.398 253.192C188.801 253.192 188.289 252.989 187.862 252.584C187.435 252.157 187.222 251.624 187.222 250.984C187.222 250.365 187.435 249.853 187.862 249.448C188.289 249.021 188.801 248.808 189.398 248.808C189.995 248.808 190.497 249.011 190.902 249.416C191.307 249.821 191.51 250.344 191.51 250.984C191.51 251.624 191.297 252.157 190.87 252.584C190.465 252.989 189.974 253.192 189.398 253.192Z" fill="white"/>
<path d="M110.437 300.6V323H107.237V313.016H94.3725V323H91.1725V300.6H94.3725V310.232H107.237V300.6H110.437ZM121.589 303.384H113.909V300.6H132.437V303.384H124.757V323H121.589V303.384ZM156.691 323L156.659 306.68L148.562 320.28H147.091L138.995 306.776V323H135.923V300.6H138.547L147.891 316.344L157.107 300.6H159.731L159.763 323H156.691ZM166.485 300.6H169.685V320.216H181.813V323H166.485V300.6ZM186.398 310.264C185.801 310.264 185.289 310.061 184.862 309.656C184.435 309.229 184.222 308.696 184.222 308.056C184.222 307.437 184.435 306.925 184.862 306.52C185.289 306.093 185.801 305.88 186.398 305.88C186.995 305.88 187.497 306.083 187.902 306.488C188.307 306.893 188.51 307.416 188.51 308.056C188.51 308.696 188.297 309.229 187.87 309.656C187.465 310.061 186.974 310.264 186.398 310.264ZM186.398 323.192C185.801 323.192 185.289 322.989 184.862 322.584C184.435 322.157 184.222 321.624 184.222 320.984C184.222 320.365 184.435 319.853 184.862 319.448C185.289 319.021 185.801 318.808 186.398 318.808C186.995 318.808 187.497 319.011 187.902 319.416C188.307 319.821 188.51 320.344 188.51 320.984C188.51 321.624 188.297 322.157 187.87 322.584C187.465 322.989 186.974 323.192 186.398 323.192Z" fill="white"/>
<rect x="199" y="24" width="60" height="26" fill="#C05A5A"/>
<rect x="200" y="93" width="140" height="26" fill="#C05A5A"/>
<rect x="200" y="163" width="100" height="26" fill="#C05A5A"/>
<rect x="200" y="232" width="150" height="25" fill="#C05A5A"/>
<rect x="199" y="302" width="150" height="25" fill="#C05A5A"/>
<line x1="259" y1="24.5" x2="399" y2="24.5" stroke="#C05A5A"/>
<line x1="259.004" y1="49.5" x2="399.003" y2="50.593" stroke="#C05A5A"/>
<line x1="340" y1="93.5" x2="399" y2="93.5" stroke="#C05A5A"/>
<line x1="300" y1="163.5" x2="399" y2="163.5" stroke="#C05A5A"/>
<line x1="350" y1="232.5" x2="399" y2="232.5" stroke="#C05A5A"/>
<line x1="349" y1="302.5" x2="399" y2="302.5" stroke="#C05A5A"/>
<line x1="340" y1="118.5" x2="399" y2="118.5" stroke="#C05A5A"/>
<line x1="300" y1="188.5" x2="399" y2="188.5" stroke="#C05A5A"/>
<line x1="350" y1="256.5" x2="399" y2="256.5" stroke="#C05A5A"/>
<line x1="349" y1="326.5" x2="399" y2="326.5" stroke="#C05A5A"/>
<line x1="398.5" y1="24" x2="398.5" y2="51" stroke="#C05A5A"/>
<line x1="398.5" y1="93" x2="398.5" y2="119" stroke="#C05A5A"/>
<line x1="398.5" y1="163" x2="398.5" y2="188" stroke="#C05A5A"/>
<line x1="398.5" y1="233" x2="398.5" y2="257" stroke="#C05A5A"/>
<line x1="398.5" y1="303" x2="398.5" y2="327" stroke="#C05A5A"/>
<path d="M214.628 36.705C216.252 36.747 217.484 37.146 218.324 37.902C219.178 38.644 219.605 39.631 219.605 40.863C219.605 41.689 219.409 42.424 219.017 43.068C218.625 43.698 218.037 44.195 217.253 44.559C216.483 44.923 215.552 45.105 214.46 45.105C213.396 45.105 212.395 44.93 211.457 44.58C210.519 44.216 209.791 43.733 209.273 43.131L209.819 42.312C210.295 42.844 210.939 43.278 211.751 43.614C212.577 43.95 213.48 44.118 214.46 44.118C215.762 44.118 216.763 43.831 217.463 43.257C218.163 42.669 218.513 41.871 218.513 40.863C218.513 39.841 218.156 39.043 217.442 38.469C216.728 37.895 215.657 37.608 214.229 37.608H213.305V36.831L217.652 31.266H209.819V30.3H219.038V31.056L214.628 36.705ZM227.619 45.105C226.499 45.105 225.498 44.804 224.616 44.202C223.748 43.586 223.069 42.718 222.579 41.598C222.103 40.478 221.865 39.162 221.865 37.65C221.865 36.138 222.103 34.822 222.579 33.702C223.069 32.582 223.748 31.721 224.616 31.119C225.498 30.503 226.499 30.195 227.619 30.195C228.739 30.195 229.733 30.503 230.601 31.119C231.483 31.721 232.162 32.582 232.638 33.702C233.128 34.822 233.373 36.138 233.373 37.65C233.373 39.162 233.128 40.478 232.638 41.598C232.162 42.718 231.483 43.586 230.601 44.202C229.733 44.804 228.739 45.105 227.619 45.105ZM227.619 44.118C228.543 44.118 229.355 43.866 230.055 43.362C230.769 42.844 231.322 42.102 231.714 41.136C232.106 40.156 232.302 38.994 232.302 37.65C232.302 36.306 232.106 35.151 231.714 34.185C231.322 33.205 230.769 32.463 230.055 31.959C229.355 31.441 228.543 31.182 227.619 31.182C226.695 31.182 225.876 31.441 225.162 31.959C224.462 32.463 223.916 33.205 223.524 34.185C223.132 35.151 222.936 36.306 222.936 37.65C222.936 38.994 223.132 40.156 223.524 41.136C223.916 42.102 224.462 42.844 225.162 43.362C225.876 43.866 226.695 44.118 227.619 44.118ZM238.711 38.154C237.745 38.154 236.961 37.79 236.359 37.062C235.771 36.334 235.477 35.375 235.477 34.185C235.477 32.995 235.771 32.036 236.359 31.308C236.961 30.58 237.745 30.216 238.711 30.216C239.677 30.216 240.461 30.58 241.063 31.308C241.665 32.036 241.966 32.995 241.966 34.185C241.966 35.375 241.665 36.334 241.063 37.062C240.461 37.79 239.677 38.154 238.711 38.154ZM247.678 30.3H248.581L238.543 45H237.64L247.678 30.3ZM238.711 37.44C239.453 37.44 240.048 37.153 240.496 36.579C240.944 35.991 241.168 35.193 241.168 34.185C241.168 33.177 240.944 32.386 240.496 31.812C240.048 31.224 239.453 30.93 238.711 30.93C237.983 30.93 237.395 31.224 236.947 31.812C236.499 32.4 236.275 33.191 236.275 34.185C236.275 35.179 236.499 35.97 236.947 36.558C237.395 37.146 237.983 37.44 238.711 37.44ZM247.51 45.084C246.544 45.084 245.76 44.72 245.158 43.992C244.556 43.264 244.255 42.305 244.255 41.115C244.255 39.925 244.556 38.966 245.158 38.238C245.76 37.51 246.544 37.146 247.51 37.146C248.476 37.146 249.253 37.51 249.841 38.238C250.443 38.966 250.744 39.925 250.744 41.115C250.744 42.305 250.443 43.264 249.841 43.992C249.253 44.72 248.476 45.084 247.51 45.084ZM247.51 44.37C248.238 44.37 248.826 44.076 249.274 43.488C249.722 42.9 249.946 42.109 249.946 41.115C249.946 40.121 249.722 39.33 249.274 38.742C248.826 38.154 248.238 37.86 247.51 37.86C246.768 37.86 246.173 38.154 245.725 38.742C245.277 39.316 245.053 40.107 245.053 41.115C245.053 42.123 245.277 42.921 245.725 43.509C246.173 44.083 246.768 44.37 247.51 44.37Z" fill="white"/>
<path d="M262.256 98.3V99.056L255.935 113H254.759L261.017 99.266H252.764V102.08H251.714V98.3H262.256ZM269.701 113.105C268.581 113.105 267.58 112.804 266.698 112.202C265.83 111.586 265.151 110.718 264.661 109.598C264.185 108.478 263.947 107.162 263.947 105.65C263.947 104.138 264.185 102.822 264.661 101.702C265.151 100.582 265.83 99.721 266.698 99.119C267.58 98.503 268.581 98.195 269.701 98.195C270.821 98.195 271.815 98.503 272.683 99.119C273.565 99.721 274.244 100.582 274.72 101.702C275.21 102.822 275.455 104.138 275.455 105.65C275.455 107.162 275.21 108.478 274.72 109.598C274.244 110.718 273.565 111.586 272.683 112.202C271.815 112.804 270.821 113.105 269.701 113.105ZM269.701 112.118C270.625 112.118 271.437 111.866 272.137 111.362C272.851 110.844 273.404 110.102 273.796 109.136C274.188 108.156 274.384 106.994 274.384 105.65C274.384 104.306 274.188 103.151 273.796 102.185C273.404 101.205 272.851 100.463 272.137 99.959C271.437 99.441 270.625 99.182 269.701 99.182C268.777 99.182 267.958 99.441 267.244 99.959C266.544 100.463 265.998 101.205 265.606 102.185C265.214 103.151 265.018 104.306 265.018 105.65C265.018 106.994 265.214 108.156 265.606 109.136C265.998 110.102 266.544 110.844 267.244 111.362C267.958 111.866 268.777 112.118 269.701 112.118ZM280.793 106.154C279.827 106.154 279.043 105.79 278.441 105.062C277.853 104.334 277.559 103.375 277.559 102.185C277.559 100.995 277.853 100.036 278.441 99.308C279.043 98.58 279.827 98.216 280.793 98.216C281.759 98.216 282.543 98.58 283.145 99.308C283.747 100.036 284.048 100.995 284.048 102.185C284.048 103.375 283.747 104.334 283.145 105.062C282.543 105.79 281.759 106.154 280.793 106.154ZM289.76 98.3H290.663L280.625 113H279.722L289.76 98.3ZM280.793 105.44C281.535 105.44 282.13 105.153 282.578 104.579C283.026 103.991 283.25 103.193 283.25 102.185C283.25 101.177 283.026 100.386 282.578 99.812C282.13 99.224 281.535 98.93 280.793 98.93C280.065 98.93 279.477 99.224 279.029 99.812C278.581 100.4 278.357 101.191 278.357 102.185C278.357 103.179 278.581 103.97 279.029 104.558C279.477 105.146 280.065 105.44 280.793 105.44ZM289.592 113.084C288.626 113.084 287.842 112.72 287.24 111.992C286.638 111.264 286.337 110.305 286.337 109.115C286.337 107.925 286.638 106.966 287.24 106.238C287.842 105.51 288.626 105.146 289.592 105.146C290.558 105.146 291.335 105.51 291.923 106.238C292.525 106.966 292.826 107.925 292.826 109.115C292.826 110.305 292.525 111.264 291.923 111.992C291.335 112.72 290.558 113.084 289.592 113.084ZM289.592 112.37C290.32 112.37 290.908 112.076 291.356 111.488C291.804 110.9 292.028 110.109 292.028 109.115C292.028 108.121 291.804 107.33 291.356 106.742C290.908 106.154 290.32 105.86 289.592 105.86C288.85 105.86 288.255 106.154 287.807 106.742C287.359 107.316 287.135 108.107 287.135 109.115C287.135 110.123 287.359 110.921 287.807 111.509C288.255 112.083 288.85 112.37 289.592 112.37Z" fill="white"/>
<path d="M262.256 238.3V239.056L255.935 253H254.759L261.017 239.266H252.764V242.08H251.714V238.3H262.256ZM267.559 244.453C269.701 244.453 271.255 244.831 272.221 245.587C273.187 246.329 273.67 247.386 273.67 248.758C273.67 249.598 273.474 250.347 273.082 251.005C272.704 251.649 272.13 252.16 271.36 252.538C270.59 252.916 269.645 253.105 268.525 253.105C267.461 253.105 266.46 252.923 265.522 252.559C264.598 252.195 263.877 251.719 263.359 251.131L263.905 250.312C264.367 250.844 265.004 251.278 265.816 251.614C266.642 251.95 267.538 252.118 268.504 252.118C269.82 252.118 270.828 251.817 271.528 251.215C272.242 250.613 272.599 249.808 272.599 248.8C272.599 247.694 272.193 246.854 271.381 246.28C270.583 245.706 269.232 245.419 267.328 245.419H264.346L265.123 238.3H272.914V239.266H266.026L265.459 244.453H267.559ZM278.496 246.154C277.53 246.154 276.746 245.79 276.144 245.062C275.556 244.334 275.262 243.375 275.262 242.185C275.262 240.995 275.556 240.036 276.144 239.308C276.746 238.58 277.53 238.216 278.496 238.216C279.462 238.216 280.246 238.58 280.848 239.308C281.45 240.036 281.751 240.995 281.751 242.185C281.751 243.375 281.45 244.334 280.848 245.062C280.246 245.79 279.462 246.154 278.496 246.154ZM287.463 238.3H288.366L278.328 253H277.425L287.463 238.3ZM278.496 245.44C279.238 245.44 279.833 245.153 280.281 244.579C280.729 243.991 280.953 243.193 280.953 242.185C280.953 241.177 280.729 240.386 280.281 239.812C279.833 239.224 279.238 238.93 278.496 238.93C277.768 238.93 277.18 239.224 276.732 239.812C276.284 240.4 276.06 241.191 276.06 242.185C276.06 243.179 276.284 243.97 276.732 244.558C277.18 245.146 277.768 245.44 278.496 245.44ZM287.295 253.084C286.329 253.084 285.545 252.72 284.943 251.992C284.341 251.264 284.04 250.305 284.04 249.115C284.04 247.925 284.341 246.966 284.943 246.238C285.545 245.51 286.329 245.146 287.295 245.146C288.261 245.146 289.038 245.51 289.626 246.238C290.228 246.966 290.529 247.925 290.529 249.115C290.529 250.305 290.228 251.264 289.626 251.992C289.038 252.72 288.261 253.084 287.295 253.084ZM287.295 252.37C288.023 252.37 288.611 252.076 289.059 251.488C289.507 250.9 289.731 250.109 289.731 249.115C289.731 248.121 289.507 247.33 289.059 246.742C288.611 246.154 288.023 245.86 287.295 245.86C286.553 245.86 285.958 246.154 285.51 246.742C285.062 247.316 284.838 248.107 284.838 249.115C284.838 250.123 285.062 250.921 285.51 251.509C285.958 252.083 286.553 252.37 287.295 252.37Z" fill="white"/>
<path d="M262.256 307.3V308.056L255.935 322H254.759L261.017 308.266H252.764V311.08H251.714V307.3H262.256ZM267.559 313.453C269.701 313.453 271.255 313.831 272.221 314.587C273.187 315.329 273.67 316.386 273.67 317.758C273.67 318.598 273.474 319.347 273.082 320.005C272.704 320.649 272.13 321.16 271.36 321.538C270.59 321.916 269.645 322.105 268.525 322.105C267.461 322.105 266.46 321.923 265.522 321.559C264.598 321.195 263.877 320.719 263.359 320.131L263.905 319.312C264.367 319.844 265.004 320.278 265.816 320.614C266.642 320.95 267.538 321.118 268.504 321.118C269.82 321.118 270.828 320.817 271.528 320.215C272.242 319.613 272.599 318.808 272.599 317.8C272.599 316.694 272.193 315.854 271.381 315.28C270.583 314.706 269.232 314.419 267.328 314.419H264.346L265.123 307.3H272.914V308.266H266.026L265.459 313.453H267.559ZM278.496 315.154C277.53 315.154 276.746 314.79 276.144 314.062C275.556 313.334 275.262 312.375 275.262 311.185C275.262 309.995 275.556 309.036 276.144 308.308C276.746 307.58 277.53 307.216 278.496 307.216C279.462 307.216 280.246 307.58 280.848 308.308C281.45 309.036 281.751 309.995 281.751 311.185C281.751 312.375 281.45 313.334 280.848 314.062C280.246 314.79 279.462 315.154 278.496 315.154ZM287.463 307.3H288.366L278.328 322H277.425L287.463 307.3ZM278.496 314.44C279.238 314.44 279.833 314.153 280.281 313.579C280.729 312.991 280.953 312.193 280.953 311.185C280.953 310.177 280.729 309.386 280.281 308.812C279.833 308.224 279.238 307.93 278.496 307.93C277.768 307.93 277.18 308.224 276.732 308.812C276.284 309.4 276.06 310.191 276.06 311.185C276.06 312.179 276.284 312.97 276.732 313.558C277.18 314.146 277.768 314.44 278.496 314.44ZM287.295 322.084C286.329 322.084 285.545 321.72 284.943 320.992C284.341 320.264 284.04 319.305 284.04 318.115C284.04 316.925 284.341 315.966 284.943 315.238C285.545 314.51 286.329 314.146 287.295 314.146C288.261 314.146 289.038 314.51 289.626 315.238C290.228 315.966 290.529 316.925 290.529 318.115C290.529 319.305 290.228 320.264 289.626 320.992C289.038 321.72 288.261 322.084 287.295 322.084ZM287.295 321.37C288.023 321.37 288.611 321.076 289.059 320.488C289.507 319.9 289.731 319.109 289.731 318.115C289.731 317.121 289.507 316.33 289.059 315.742C288.611 315.154 288.023 314.86 287.295 314.86C286.553 314.86 285.958 315.154 285.51 315.742C285.062 316.316 284.838 317.107 284.838 318.115C284.838 319.123 285.062 319.921 285.51 320.509C285.958 321.083 286.553 321.37 287.295 321.37Z" fill="white"/>
<path d="M236.746 174.453C238.888 174.453 240.442 174.831 241.408 175.587C242.374 176.329 242.857 177.386 242.857 178.758C242.857 179.598 242.661 180.347 242.269 181.005C241.891 181.649 241.317 182.16 240.547 182.538C239.777 182.916 238.832 183.105 237.712 183.105C236.648 183.105 235.647 182.923 234.709 182.559C233.785 182.195 233.064 181.719 232.546 181.131L233.092 180.312C233.554 180.844 234.191 181.278 235.003 181.614C235.829 181.95 236.725 182.118 237.691 182.118C239.007 182.118 240.015 181.817 240.715 181.215C241.429 180.613 241.786 179.808 241.786 178.8C241.786 177.694 241.38 176.854 240.568 176.28C239.77 175.706 238.419 175.419 236.515 175.419H233.533L234.31 168.3H242.101V169.266H235.213L234.646 174.453H236.746ZM250.619 183.105C249.499 183.105 248.498 182.804 247.616 182.202C246.748 181.586 246.069 180.718 245.579 179.598C245.103 178.478 244.865 177.162 244.865 175.65C244.865 174.138 245.103 172.822 245.579 171.702C246.069 170.582 246.748 169.721 247.616 169.119C248.498 168.503 249.499 168.195 250.619 168.195C251.739 168.195 252.733 168.503 253.601 169.119C254.483 169.721 255.162 170.582 255.638 171.702C256.128 172.822 256.373 174.138 256.373 175.65C256.373 177.162 256.128 178.478 255.638 179.598C255.162 180.718 254.483 181.586 253.601 182.202C252.733 182.804 251.739 183.105 250.619 183.105ZM250.619 182.118C251.543 182.118 252.355 181.866 253.055 181.362C253.769 180.844 254.322 180.102 254.714 179.136C255.106 178.156 255.302 176.994 255.302 175.65C255.302 174.306 255.106 173.151 254.714 172.185C254.322 171.205 253.769 170.463 253.055 169.959C252.355 169.441 251.543 169.182 250.619 169.182C249.695 169.182 248.876 169.441 248.162 169.959C247.462 170.463 246.916 171.205 246.524 172.185C246.132 173.151 245.936 174.306 245.936 175.65C245.936 176.994 246.132 178.156 246.524 179.136C246.916 180.102 247.462 180.844 248.162 181.362C248.876 181.866 249.695 182.118 250.619 182.118ZM261.711 176.154C260.745 176.154 259.961 175.79 259.359 175.062C258.771 174.334 258.477 173.375 258.477 172.185C258.477 170.995 258.771 170.036 259.359 169.308C259.961 168.58 260.745 168.216 261.711 168.216C262.677 168.216 263.461 168.58 264.063 169.308C264.665 170.036 264.966 170.995 264.966 172.185C264.966 173.375 264.665 174.334 264.063 175.062C263.461 175.79 262.677 176.154 261.711 176.154ZM270.678 168.3H271.581L261.543 183H260.64L270.678 168.3ZM261.711 175.44C262.453 175.44 263.048 175.153 263.496 174.579C263.944 173.991 264.168 173.193 264.168 172.185C264.168 171.177 263.944 170.386 263.496 169.812C263.048 169.224 262.453 168.93 261.711 168.93C260.983 168.93 260.395 169.224 259.947 169.812C259.499 170.4 259.275 171.191 259.275 172.185C259.275 173.179 259.499 173.97 259.947 174.558C260.395 175.146 260.983 175.44 261.711 175.44ZM270.51 183.084C269.544 183.084 268.76 182.72 268.158 181.992C267.556 181.264 267.255 180.305 267.255 179.115C267.255 177.925 267.556 176.966 268.158 176.238C268.76 175.51 269.544 175.146 270.51 175.146C271.476 175.146 272.253 175.51 272.841 176.238C273.443 176.966 273.744 177.925 273.744 179.115C273.744 180.305 273.443 181.264 272.841 181.992C272.253 182.72 271.476 183.084 270.51 183.084ZM270.51 182.37C271.238 182.37 271.826 182.076 272.274 181.488C272.722 180.9 272.946 180.109 272.946 179.115C272.946 178.121 272.722 177.33 272.274 176.742C271.826 176.154 271.238 175.86 270.51 175.86C269.768 175.86 269.173 176.154 268.725 176.742C268.277 177.316 268.053 178.107 268.053 179.115C268.053 180.123 268.277 180.921 268.725 181.509C269.173 182.083 269.768 182.37 270.51 182.37Z" fill="white"/>
</svg>
